<?xml version="1.0" encoding="UTF-8" standalone="no"?>
<svg
   version="1.1"
   x="0px"
   y="0px"
   viewBox="0 0 89.574989 71.690735"
   enable-background="new 0 0 100 100"
   xml:space="preserve"
   id="svg2"
   width="89.574989"
   height="71.690735"
   xmlns="http://www.w3.org/2000/svg"
   xmlns:svg="http://www.w3.org/2000/svg"><defs
     id="defs2" /><g
     id="g1"
     transform="translate(-5.2100076,-14.156635)"><path
       fill-rule="evenodd"
       clip-rule="evenodd"
       d="m 94.785,52.821 -4.929,-0.65 4.336,-1.854 -5.872,0.688 1.424,-2.232 -2.602,1.662 c -1.705,-0.921 -3.677,-2.495 -6.326,-1.424 -0.775,0.315 -1.513,0.771 -2.203,1.302 l -0.01,-0.38 c -0.022,-0.69 -0.036,-1.376 -0.077,-2.06 -0.339,-5.491 -2.287,-10.618 -4.897,-14.819 -0.358,-0.53 -0.698,-1.062 -1.045,-1.584 1.273,-0.699 2.547,-1.708 3.477,-3.18 2.193,-3.469 0.566,-7.855 0.566,-7.855 l 1.814,-4.354 -2.64,2.267 -0.791,-3.953 -0.999,4.023 -2.092,-2.511 1.068,3.913 -2.674,0.588 3.278,1.155 c 0,0 0.789,3.329 -0.588,5.116 -0.694,0.902 -1.6,1.558 -2.513,2.034 -0.385,-0.468 -0.772,-0.943 -1.147,-1.403 -0.809,-0.885 -1.687,-1.746 -2.501,-2.582 -0.863,-0.938 -1.521,-1.376 -2.23,-2.014 -0.344,-0.301 -0.687,-0.597 -1.025,-0.891 l -0.464,-0.4 -0.304,-0.235 c -0.203,-0.154 -0.401,-0.313 -0.593,-0.478 -0.769,-0.656 -1.488,-1.348 -2.231,-1.989 -0.369,-0.33 -0.711,-0.667 -1.093,-0.988 -0.407,-0.31 -4.084,-2.907 -8.256,-3.412 -1.515,-0.171 -2.571,-0.209 -4.418,-0.112 -5.811,0.623 -7.211,1.759 -7.211,1.759 -0.383,0.177 -0.717,0.467 -0.948,0.856 -0.609,1.025 -0.417,1.86 0.607,2.896 0,0 0.948,0.893 2.042,1.685 4.698,3.404 5.768,4.117 7.974,5.025 1.176,0.484 3.21,0.69 3.497,0.786 0.277,0.097 0.575,0.167 0.876,0.253 0.312,0.103 0.649,0.232 0.981,0.355 0.328,0.137 0.678,0.253 1.009,0.41 0.318,0.174 0.635,0.359 0.941,0.57 0.157,0.1 0.311,0.208 0.459,0.324 l 0.149,0.111 0.11,0.106 c 0.324,0.31 0.649,0.624 0.98,0.942 0.616,0.62 1.443,1.343 1.771,1.899 0.43,0.605 0.884,1.158 1.315,1.807 0.19,0.336 0.386,0.682 0.579,1.022 -1.004,1.088 -2.83,2.692 -5.122,3.039 -2.23,0.337 -4.759,-1.966 -4.759,-1.966 l 0.579,-3.428 -1.81,2.053 -2.905,-2.831 1.182,3.048 -4.002,-1.077 3.072,2.609 -3.26,1.209 4.688,0.524 c 0,0 3.048,3.549 7.145,3.312 3.032,-0.175 5.345,-1.928 6.729,-3.323 0.05,0.122 0.096,0.243 0.148,0.362 1.229,3.246 1.896,6.737 2.283,10.371 0.023,0.459 0.076,0.918 0.12,1.38 l 0.072,0.696 c 0.006,-0.134 -0.004,0.358 0.014,-0.289 v 0.055 0.109 0.215 l 0.001,0.438 c 0,0.581 0.003,1.166 0.003,1.751 l 0.017,0.867 -0.05,0.625 c -0.009,0.13 -0.012,0.261 -0.019,0.392 -1.477,-0.732 -3.113,-1.305 -4.7,-1.36 -2.856,-0.099 -5.63,2.591 -6.914,4.042 l -3.016,-0.667 2.104,1.607 -5.754,1.369 4.712,0.251 -4.408,2.305 5.551,-0.954 -3.279,2.633 5.935,-2.051 c 0,0 3.566,-4.878 5.702,-4.586 0.67,0.09 2.199,0.933 3.679,1.834 -0.055,0.275 -0.115,0.552 -0.155,0.837 -0.665,3.998 -2.174,8.206 -4.858,11.788 -2.72,3.547 -6.573,6.164 -10.686,7.916 -4.146,1.756 -8.592,2.582 -13.045,2.396 C 32.045,82.365 27.812,81.314 24.16,79.531 20.495,77.774 17.356,75.404 14.913,72.791 12.464,70.187 10.566,67.431 9.373,64.76 9.21,64.432 9.051,64.11 8.893,63.792 8.756,63.467 8.643,63.137 8.518,62.818 8.276,62.179 8.042,61.562 7.817,60.97 7.456,59.757 7.194,58.62 6.924,57.606 6.766,56.564 6.626,55.637 6.505,54.829 6.377,54.02 6.418,53.322 6.374,52.76 6.329,51.636 6.304,51.037 6.304,51.037 L 6.301,50.979 c 0,-0.003 0,-0.006 0,-0.009 -0.019,-0.299 -0.277,-0.529 -0.578,-0.51 -0.301,0.018 -0.53,0.276 -0.512,0.578 0,0 0.036,0.618 0.104,1.778 0.058,0.578 0.034,1.301 0.178,2.132 0.129,0.831 0.275,1.789 0.441,2.859 0.275,1.049 0.541,2.222 0.91,3.474 0.219,0.617 0.447,1.258 0.681,1.924 0.122,0.331 0.232,0.675 0.368,1.013 0.155,0.332 0.313,0.669 0.471,1.011 1.199,2.777 3.033,5.71 5.473,8.539 2.458,2.808 5.564,5.522 9.353,7.632 3.783,2.092 8.185,3.657 13.006,4.207 4.665,0.541 9.812,0.197 14.702,-1.32 4.929,-1.498 9.521,-4.201 13.744,-7.522 4.187,-3.36 7.995,-7.6 10.58,-12.642 0.688,-1.242 1.193,-2.559 1.66,-3.893 0.38,-0.905 0.632,-1.958 0.863,-3.023 1.291,-1.688 3.035,-3.849 3.825,-4.267 1.907,-1.006 5.376,2.354 5.376,2.354 l 6.276,-0.112 -3.982,-1.348 z"
       id="path1" /></g></svg>
